<?xml version="1.0" encoding="utf-8"?>
<!-- Generator: Adobe Illustrator 14.0.0, SVG Export Plug-In . SVG Version: 6.00 Build 43363)  -->
<!DOCTYPE svg PUBLIC "-//W3C//DTD SVG 1.0//EN" "http://www.w3.org/TR/2001/REC-SVG-20010904/DTD/svg10.dtd">
<svg version="1.0" id="Camada_1" xmlns="http://www.w3.org/2000/svg" xmlns:xlink="http://www.w3.org/1999/xlink" x="0px" y="0px"
	 width="34.322px" height="30.304px" viewBox="0 0 34.322 30.304" enable-background="new 0 0 34.322 30.304" xml:space="preserve">
<g>
	<path fill="#FFFFFF" d="M14.989,30.303c-2.001,0-3.63-1.628-3.63-3.629c0-2.002,1.629-3.63,3.63-3.63s3.629,1.628,3.629,3.63
		C18.618,28.675,16.99,30.303,14.989,30.303L14.989,30.303z M14.989,24.483c-1.208,0-2.19,0.982-2.19,2.19
		c0,1.207,0.982,2.189,2.19,2.189s2.189-0.982,2.189-2.189C17.178,25.466,16.196,24.483,14.989,24.483L14.989,24.483z"/>
	<path fill="#FFFFFF" d="M26.185,30.303c-2.002,0-3.63-1.628-3.63-3.629s1.628-3.629,3.63-3.629s3.63,1.628,3.63,3.629
		S28.187,30.303,26.185,30.303L26.185,30.303z M26.185,24.484c-1.208,0-2.19,0.982-2.19,2.189s0.982,2.189,2.19,2.189
		s2.19-0.982,2.19-2.189S27.393,24.484,26.185,24.484L26.185,24.484z"/>
	<path fill="#FFFFFF" d="M33.602,8.49H9.766L7.323,0.509C7.23,0.207,6.951,0,6.634,0H0.72C0.323,0,0,0.322,0,0.72
		s0.323,0.72,0.72,0.72h5.381l5.326,17.402c0.093,0.303,0.372,0.509,0.688,0.509h18.348c0.397,0,0.72-0.322,0.72-0.72
		s-0.322-0.72-0.72-0.72H12.649l-1-3.266h20.74c0.397,0,0.72-0.323,0.72-0.72s-0.322-0.72-0.72-0.72H11.208L10.206,9.93h23.396
		c0.397,0,0.72-0.323,0.72-0.72S33.999,8.49,33.602,8.49z"/>
</g>
</svg>
