<?xml version="1.0" encoding="utf-8"?>
<!-- Generator: Adobe Illustrator 14.0.0, SVG Export Plug-In . SVG Version: 6.00 Build 43363)  -->
<!DOCTYPE svg PUBLIC "-//W3C//DTD SVG 1.0//EN" "http://www.w3.org/TR/2001/REC-SVG-20010904/DTD/svg10.dtd">
<svg version="1.0" id="Camada_1" xmlns="http://www.w3.org/2000/svg" xmlns:xlink="http://www.w3.org/1999/xlink" x="0px" y="0px"
	 width="41.574px" height="76.897px" viewBox="0 0 41.574 76.897" enable-background="new 0 0 41.574 76.897" xml:space="preserve">
<g>
	<path fill="#FFFFFF" d="M40.012,0.015L30.039,0C18.836,0,11.595,7.429,11.595,18.925v8.727H1.566C0.703,27.652,0,28.351,0,29.218
		v12.645c0,0.863,0.703,1.566,1.566,1.566h10.029v31.903c0,0.862,0.702,1.565,1.569,1.565h13.079c0.867,0,1.57-0.703,1.57-1.565
		V43.429h11.723c0.867,0,1.566-0.703,1.566-1.566l0.008-12.645c0-0.414-0.168-0.812-0.461-1.109
		c-0.293-0.293-0.691-0.457-1.109-0.457H27.813v-7.398c0-3.555,0.848-5.36,5.477-5.36l6.719-0.004c0.867,0,1.566-0.703,1.566-1.566
		V1.585C41.574,0.718,40.875,0.019,40.012,0.015"/>
</g>
</svg>
