<?xml version="1.0" encoding="utf-8"?>
<!-- Generator: Adobe Illustrator 14.0.0, SVG Export Plug-In . SVG Version: 6.00 Build 43363)  -->
<!DOCTYPE svg PUBLIC "-//W3C//DTD SVG 1.0//EN" "http://www.w3.org/TR/2001/REC-SVG-20010904/DTD/svg10.dtd">
<svg version="1.0" id="Camada_1" xmlns="http://www.w3.org/2000/svg" xmlns:xlink="http://www.w3.org/1999/xlink" x="0px" y="0px"
	 width="72px" height="68.801px" viewBox="0 0 72 68.801" enable-background="new 0 0 72 68.801" xml:space="preserve">
<g>
	<path fill="#FFFFFF" d="M72,42.18v26.621H56.566V43.965c0-6.238-2.23-10.496-7.816-10.496c-4.266,0-6.801,2.867-7.918,5.644
		c-0.406,0.993-0.512,2.372-0.512,3.763v25.926H24.883c0,0,0.207-42.067,0-46.422H40.32v6.578c-0.031,0.051-0.074,0.102-0.102,0.152
		h0.102v-0.152c2.051-3.156,5.711-7.668,13.91-7.668C64.387,21.289,72,27.922,72,42.18 M8.734,0C3.453,0,0,3.465,0,8.021
		c0,4.457,3.355,8.023,8.531,8.023h0.102c5.383,0,8.73-3.566,8.73-8.023C17.262,3.465,14.016,0,8.734,0 M0.918,68.801h15.43V22.379
		H0.918V68.801z"/>
</g>
</svg>
