<?xml version="1.0" encoding="utf-8"?>
<!-- Generator: Adobe Illustrator 14.0.0, SVG Export Plug-In . SVG Version: 6.00 Build 43363)  -->
<!DOCTYPE svg PUBLIC "-//W3C//DTD SVG 1.0//EN" "http://www.w3.org/TR/2001/REC-SVG-20010904/DTD/svg10.dtd">
<svg version="1.0" id="Camada_1" xmlns="http://www.w3.org/2000/svg" xmlns:xlink="http://www.w3.org/1999/xlink" x="0px" y="0px"
	 width="512.915px" height="106.172px" viewBox="0 0 512.915 106.172" enable-background="new 0 0 512.915 106.172"
	 xml:space="preserve">
<g>
	<path fill-rule="evenodd" clip-rule="evenodd" fill="#FFFFFF" d="M90.23,0.009L75.779,25.856H39.909
		c-2.321,0.302-3.575,1.257-4.73,2.905L22.216,51.997L9.835,28.881c-0.558-1.078-1.394-3.308-0.081-5.817L20.852,2.911
		c1.575-2.2,3.232-2.724,4.833-2.902H90.23z"/>
	<path fill-rule="evenodd" clip-rule="evenodd" fill="#FFFFFF" d="M38.556,106.172l14.45-25.847h35.87
		c2.323-0.302,3.577-1.257,4.732-2.905l12.962-23.235l12.381,23.116c0.557,1.077,1.394,3.308,0.081,5.816l-11.097,20.153
		c-1.574,2.2-3.232,2.723-4.833,2.901H38.556z"/>
	<path fill-rule="evenodd" clip-rule="evenodd" fill="#FFFFFF" d="M72.176,32.457l-40.748,73.708
		c-10.575,0-20.86-0.003-31.428-0.003l38.951-70.687c1.148-1.941,3.021-2.96,5.014-3.087L72.176,32.457z"/>
	<path fill-rule="evenodd" clip-rule="evenodd" fill="#FFFFFF" d="M56.61,73.815L97.386,0.001c10.576,0,20.861,0.002,31.429,0.002
		L89.834,70.798c-1.148,1.939-3.02,2.959-5.013,3.087L56.61,73.815z"/>
	<path fill="#FFFFFF" d="M163.271,49.135v27.411v1.187h-1.187h-6.886h-1.186v-1.187V38.98c0-0.781,0.102-1.494,0.305-2.138v-0.005
		c0.213-0.676,0.539-1.27,0.978-1.785c0.453-0.53,0.989-0.929,1.605-1.195c0.6-0.259,1.267-0.389,1.998-0.389v0.005
		c0.352,0,0.697,0.037,1.036,0.113c0.347,0.077,0.679,0.189,0.995,0.335c0.318,0.146,0.639,0.34,0.963,0.581
		c0.316,0.234,0.622,0.498,0.917,0.794l-0.002,0.002l27.178,26.965V34.825v-1.181h1.185h6.887h1.187v1.181v37.908
		c0,0.8-0.102,1.524-0.305,2.174c-0.216,0.688-0.546,1.284-0.988,1.793c-0.451,0.514-0.97,0.899-1.559,1.158h-0.003
		c-0.587,0.259-1.225,0.387-1.918,0.387c-0.76,0-1.492-0.165-2.203-0.495h-0.005c-0.677-0.315-1.321-0.779-1.93-1.39v-0.004
		L163.271,49.135z"/>
	<path fill="#FFFFFF" d="M249.844,77.154l-5.859-9.837h-23.974l-5.815,9.832l-0.344,0.582h-0.675h-8.254h-2.09l1.077-1.792
		l23.784-39.601l-0.001-0.002c0.245-0.422,0.515-0.805,0.812-1.148c0.307-0.353,0.638-0.66,0.992-0.92
		c0.389-0.285,0.822-0.501,1.296-0.645c0.463-0.143,0.947-0.213,1.452-0.213v0.004c0.52,0,1.004,0.07,1.45,0.209
		c0.467,0.144,0.895,0.364,1.285,0.659c0.349,0.266,0.672,0.57,0.965,0.915c0.282,0.333,0.545,0.707,0.786,1.122h0.001
		l23.848,39.617l1.082,1.795h-2.096h-8.708h-0.67L249.844,77.154z M224.881,59.082h14.221l-7.135-11.981L224.881,59.082z"/>
	<path fill="#FFFFFF" d="M265.212,76.546v-7.229v-1.185h1.186h31.021c0.842,0,1.575-0.104,2.197-0.31
		c0.58-0.193,1.067-0.475,1.46-0.847c0.397-0.374,0.692-0.806,0.888-1.295c0.201-0.507,0.303-1.097,0.303-1.771
		c0-0.747-0.103-1.385-0.309-1.91v-0.005c-0.187-0.481-0.467-0.881-0.84-1.199c-0.393-0.336-0.883-0.592-1.469-0.767
		c-0.631-0.189-1.373-0.282-2.23-0.282h-19.011c-1.023,0-2.011-0.081-2.963-0.24c-0.946-0.158-1.851-0.399-2.715-0.723
		s-1.658-0.706-2.38-1.15c-0.739-0.453-1.41-0.971-2.012-1.552c-0.6-0.578-1.134-1.215-1.6-1.909
		c-0.466-0.694-0.861-1.438-1.183-2.227c-0.32-0.785-0.563-1.617-0.727-2.494c-0.161-0.87-0.243-1.761-0.243-2.675
		c0-0.901,0.074-1.772,0.225-2.615c0.148-0.841,0.378-1.657,0.684-2.449c0.308-0.796,0.688-1.534,1.141-2.213l0.003-0.004
		c0.459-0.685,0.989-1.315,1.592-1.885c0.607-0.576,1.281-1.086,2.018-1.531c0.731-0.442,1.532-0.823,2.403-1.142
		c0.859-0.319,1.788-0.558,2.783-0.718c0.986-0.159,2.017-0.239,3.087-0.239h29.712h1.186v1.185v7.229v1.186h-1.186h-29.712
		c-0.712,0-1.324,0.088-1.835,0.264c-0.474,0.164-0.877,0.407-1.206,0.73c-0.327,0.321-0.575,0.71-0.742,1.166
		c-0.18,0.494-0.271,1.068-0.271,1.719h0.005c0,0.659,0.09,1.228,0.27,1.704c0.167,0.445,0.417,0.824,0.749,1.135
		c0.343,0.323,0.75,0.565,1.218,0.727c0.506,0.175,1.092,0.262,1.758,0.262v-0.004h18.953v0.004c2.228,0,4.195,0.264,5.903,0.791
		c1.765,0.545,3.257,1.368,4.479,2.475c1.237,1.119,2.163,2.521,2.773,4.2c0.596,1.636,0.894,3.525,0.894,5.668
		c0,0.924-0.073,1.828-0.218,2.709c-0.144,0.872-0.361,1.715-0.653,2.528c-0.297,0.827-0.665,1.593-1.103,2.297
		c-0.442,0.711-0.962,1.369-1.558,1.975c-0.594,0.606-1.266,1.145-2.012,1.616c-0.739,0.466-1.548,0.865-2.425,1.195
		c-0.88,0.331-1.832,0.578-2.858,0.744c-1.021,0.163-2.096,0.246-3.224,0.246h-31.021h-1.186V76.546z"/>
	<path fill="#FFFFFF" d="M361.88,77.154l-5.859-9.837h-23.973l-5.815,9.832l-0.346,0.582h-0.673h-8.254h-2.09l1.076-1.792
		l23.784-39.601l-0.002-0.002c0.245-0.421,0.517-0.805,0.813-1.148c0.307-0.353,0.638-0.66,0.992-0.92
		c0.389-0.285,0.82-0.501,1.296-0.645c0.452-0.138,0.937-0.209,1.452-0.209v-0.004c0.511,0,0.994,0.07,1.451,0.213
		c0.467,0.144,0.895,0.364,1.283,0.659c0.35,0.266,0.672,0.57,0.966,0.915c0.281,0.333,0.544,0.707,0.786,1.122l23.85,39.617
		l1.081,1.795h-2.095h-8.709h-0.67L361.88,77.154z M336.917,59.082h14.221l-7.135-11.981L336.917,59.082z"/>
	<path fill="#FFFFFF" d="M377.444,76.546v-7.229v-1.185h1.185h6.439c2.31,0,4.281-0.22,5.913-0.655
		c1.562-0.419,2.805-1.032,3.726-1.837c0.91-0.796,1.595-1.833,2.057-3.11c0.481-1.333,0.723-2.941,0.723-4.824v-22.54V33.98h1.187
		h7.228h1.187v1.185v22.54c0,3.333-0.44,6.253-1.321,8.758c-0.901,2.56-2.26,4.675-4.072,6.344c-1.803,1.66-4.114,2.899-6.934,3.722
		c-2.742,0.798-5.974,1.198-9.691,1.198v0.005h-6.439h-1.185V76.546z"/>
	<path fill="#FFFFFF" d="M432.201,77.733c-3.047,0-5.873-0.575-8.476-1.725c-1.295-0.572-2.505-1.251-3.628-2.033
		c-1.122-0.779-2.162-1.671-3.122-2.671c-0.955-0.996-1.807-2.087-2.552-3.27c-0.742-1.177-1.377-2.449-1.91-3.813
		c-0.527-1.355-0.927-2.771-1.19-4.245c-0.268-1.479-0.401-2.995-0.401-4.548h0.005c0-1.588,0.132-3.11,0.396-4.562
		c0.267-1.47,0.666-2.867,1.195-4.188c0.53-1.318,1.17-2.549,1.919-3.688c0.751-1.142,1.605-2.182,2.563-3.118
		c0.962-0.941,2.007-1.776,3.135-2.501c1.132-0.727,2.344-1.346,3.633-1.856c1.283-0.508,2.637-0.891,4.063-1.149
		c1.418-0.256,2.876-0.387,4.371-0.387h10.074c1.551,0,3.057,0.132,4.514,0.393c1.447,0.261,2.83,0.653,4.146,1.175
		c1.319,0.523,2.544,1.153,3.675,1.885c1.138,0.739,2.181,1.582,3.127,2.529h0.006c0.94,0.942,1.785,1.987,2.529,3.134
		c0.732,1.13,1.361,2.355,1.885,3.673c0.522,1.317,0.914,2.7,1.176,4.148c0.262,1.457,0.393,2.961,0.393,4.512
		c0,3.14-0.531,6.07-1.592,8.793c-0.531,1.363-1.168,2.636-1.91,3.813c-0.745,1.183-1.596,2.273-2.551,3.27
		c-0.954,0.994-2,1.886-3.135,2.671c-1.13,0.783-2.347,1.461-3.65,2.033c-1.318,0.578-2.693,1.01-4.125,1.295
		c-1.434,0.286-2.93,0.43-4.486,0.43H432.201z M442.275,68.132c0.877,0,1.711-0.078,2.506-0.233
		c0.794-0.155,1.551-0.388,2.268-0.693c0.723-0.311,1.398-0.678,2.023-1.106c0.623-0.426,1.196-0.907,1.719-1.445
		c0.521-0.54,0.984-1.133,1.392-1.778c0.41-0.653,0.763-1.36,1.058-2.123c0.59-1.526,0.884-3.186,0.884-4.981
		c0-1.791-0.294-3.439-0.884-4.949c-0.299-0.761-0.649-1.46-1.054-2.094c-0.403-0.633-0.868-1.216-1.39-1.746
		c-0.524-0.533-1.096-1.007-1.715-1.421s-1.293-0.773-2.024-1.076c-0.724-0.303-1.48-0.529-2.268-0.679
		c-0.79-0.15-1.629-0.225-2.515-0.225h-10.074c-0.863,0-1.683,0.075-2.46,0.225c-0.784,0.152-1.529,0.377-2.232,0.674
		c-0.718,0.301-1.383,0.661-1.995,1.076c-0.605,0.411-1.168,0.886-1.686,1.42c-0.508,0.524-0.964,1.105-1.371,1.746
		c-0.404,0.638-0.754,1.329-1.05,2.076c-0.292,0.741-0.514,1.525-0.661,2.351h-0.004c-0.146,0.813-0.22,1.688-0.22,2.622
		c0,1.796,0.296,3.455,0.885,4.981c0.293,0.759,0.646,1.469,1.055,2.128c0.406,0.65,0.864,1.244,1.375,1.78
		c0.514,0.54,1.076,1.021,1.685,1.443c0.62,0.429,1.285,0.799,1.995,1.105c0.7,0.304,1.442,0.534,2.229,0.689
		c0.779,0.155,1.599,0.233,2.455,0.233H442.275z"/>
	<path fill="#FFFFFF" d="M476.941,49.135v27.411v1.182h-1.186h-6.887h-1.187v-1.182V38.98c0-0.784,0.101-1.499,0.305-2.143
		c0.214-0.676,0.539-1.271,0.979-1.785c0.452-0.53,0.987-0.929,1.604-1.195c0.603-0.259,1.268-0.389,1.998-0.389v0.005
		c0.354,0,0.698,0.037,1.037,0.113c0.346,0.077,0.68,0.189,0.995,0.335c0.316,0.146,0.638,0.34,0.962,0.581
		c0.316,0.234,0.623,0.498,0.917,0.794l-0.002,0.002l27.179,26.965V34.825v-1.181h1.186h6.887h1.187v1.181v37.908
		c0,0.8-0.102,1.524-0.305,2.174c-0.215,0.687-0.545,1.284-0.988,1.793c-0.447,0.511-0.968,0.896-1.559,1.156l0.001,0.002
		c-0.579,0.254-1.22,0.383-1.921,0.383v0.004c-0.763,0-1.499-0.165-2.209-0.495l0.002-0.001c-0.683-0.318-1.327-0.781-1.933-1.389
		v-0.004L476.941,49.135z"/>
	<path fill="#FFFFFF" d="M161.844,92.578c-0.103-0.064-0.168-0.104-0.21-0.135l-0.011-0.007v-0.001
		c-0.103-0.063-0.209-0.117-0.32-0.168c-0.126-0.059-0.261-0.112-0.408-0.164l-0.002-0.001l-0.003-0.001
		c-0.148-0.05-0.305-0.097-0.468-0.136h-0.001c-0.162-0.039-0.329-0.075-0.498-0.104c-0.183-0.031-0.356-0.054-0.518-0.07h-0.002
		c-0.161-0.015-0.333-0.021-0.514-0.021v-0.002c-0.143,0.002-0.289,0.018-0.435,0.046c-0.143,0.029-0.28,0.071-0.415,0.124
		l-0.004,0.002c-0.136,0.057-0.265,0.125-0.383,0.203c-0.121,0.078-0.236,0.17-0.345,0.271c-0.108,0.102-0.203,0.212-0.286,0.328
		s-0.157,0.244-0.221,0.381c-0.06,0.133-0.105,0.273-0.136,0.42c-0.031,0.149-0.05,0.303-0.051,0.458
		c0.001,0.121,0.023,0.24,0.062,0.355c0.04,0.114,0.098,0.227,0.176,0.333l0.002,0.002c0.084,0.117,0.186,0.23,0.304,0.343
		c0.123,0.116,0.264,0.228,0.415,0.333l0.004,0.002c0.159,0.113,0.331,0.228,0.515,0.339c0.191,0.117,0.389,0.23,0.587,0.335
		l0.641,0.345l0.001-0.001l0.662,0.351v0.002c0.266,0.141,0.506,0.273,0.713,0.388c0.221,0.124,0.452,0.258,0.697,0.403v-0.001
		c0.233,0.136,0.461,0.285,0.682,0.445h0.001c0.212,0.149,0.418,0.312,0.617,0.484l0.004,0.002c0.201,0.176,0.384,0.365,0.547,0.568
		s0.306,0.417,0.43,0.644c0.126,0.236,0.22,0.489,0.284,0.76c0.061,0.259,0.095,0.539,0.098,0.84v0.007
		c-0.001,0.403-0.037,0.776-0.106,1.121h-0.002c-0.07,0.355-0.177,0.686-0.317,0.994c-0.142,0.308-0.311,0.591-0.507,0.849v0.001
		c-0.199,0.26-0.424,0.495-0.677,0.702h-0.001c-0.253,0.205-0.524,0.385-0.813,0.538c-0.291,0.152-0.602,0.282-0.934,0.383
		c-0.328,0.103-0.67,0.178-1.024,0.229c-0.355,0.052-0.722,0.076-1.097,0.076v-0.002c-0.349,0-0.688-0.021-1.016-0.067
		c-0.332-0.046-0.658-0.116-0.975-0.21l0.001-0.001c-0.318-0.092-0.626-0.207-0.923-0.342c-0.303-0.139-0.595-0.3-0.875-0.48
		l-0.003-0.001c-0.116-0.078-0.218-0.16-0.304-0.246c-0.088-0.088-0.164-0.186-0.227-0.293h-0.001l-0.001-0.001v-0.001
		c-0.064-0.103-0.112-0.211-0.145-0.326l-0.002-0.003c-0.033-0.116-0.05-0.236-0.05-0.357c0-0.158,0.021-0.303,0.062-0.429
		c0.048-0.144,0.12-0.266,0.218-0.366l0.007-0.008c0.101-0.098,0.224-0.17,0.368-0.217h0.002c0.127-0.041,0.268-0.063,0.424-0.063
		c0.078,0,0.157,0.008,0.239,0.021h0.001c0.077,0.012,0.155,0.033,0.235,0.061l0.004,0.001c0.076,0.024,0.154,0.06,0.233,0.099
		c0.069,0.034,0.14,0.076,0.212,0.124c0.131,0.08,0.264,0.152,0.393,0.215c0.139,0.066,0.279,0.127,0.421,0.182
		c0.14,0.055,0.289,0.103,0.442,0.146c0.151,0.043,0.301,0.079,0.448,0.106c0.153,0.03,0.3,0.054,0.445,0.067
		c0.135,0.014,0.28,0.021,0.429,0.021c0.214,0,0.423-0.012,0.622-0.036c0.203-0.024,0.394-0.061,0.575-0.107
		c0.18-0.046,0.351-0.106,0.51-0.18c0.156-0.071,0.301-0.155,0.435-0.252c0.128-0.092,0.245-0.199,0.349-0.32
		c0.101-0.123,0.19-0.259,0.262-0.406v-0.003c0.074-0.15,0.131-0.316,0.169-0.497v-0.002c0.04-0.188,0.062-0.394,0.064-0.612v-0.007
		c-0.002-0.113-0.021-0.229-0.054-0.339h0.002c-0.032-0.107-0.083-0.214-0.149-0.315c-0.076-0.116-0.164-0.228-0.263-0.332
		c-0.1-0.107-0.216-0.213-0.348-0.317h0.001c-0.138-0.105-0.287-0.212-0.447-0.319c-0.16-0.104-0.331-0.211-0.512-0.313h0.002
		c-0.365-0.208-0.753-0.418-1.159-0.628c-0.269-0.139-0.475-0.246-0.623-0.324c-0.139-0.075-0.356-0.193-0.621-0.337l-0.002-0.002
		c-0.209-0.117-0.416-0.238-0.615-0.361c-0.201-0.123-0.396-0.25-0.585-0.383h-0.001c-0.199-0.137-0.385-0.279-0.557-0.424
		c-0.174-0.147-0.34-0.301-0.493-0.462c-0.155-0.165-0.298-0.339-0.426-0.523s-0.236-0.374-0.326-0.565v-0.003
		c-0.096-0.205-0.167-0.421-0.215-0.647c-0.046-0.219-0.07-0.451-0.073-0.694v-0.005c0.003-0.371,0.036-0.717,0.101-1.04
		c0.065-0.327,0.165-0.641,0.297-0.936l0.001-0.004c0.132-0.29,0.29-0.559,0.471-0.804c0.184-0.247,0.393-0.474,0.628-0.679
		c0.235-0.201,0.486-0.379,0.755-0.53l0.003,0.002c0.266-0.153,0.552-0.28,0.854-0.383v-0.001c0.607-0.208,1.254-0.311,1.952-0.311
		c0.293,0,0.597,0.02,0.909,0.063c0.307,0.041,0.619,0.104,0.932,0.186h0.001c0.317,0.085,0.63,0.189,0.943,0.315
		c0.314,0.126,0.626,0.272,0.935,0.439l0.016,0.008c0.123,0.075,0.233,0.158,0.325,0.249c0.099,0.097,0.183,0.203,0.248,0.317
		l0.003,0.005c0.06,0.112,0.108,0.227,0.139,0.343v0.002c0.033,0.12,0.05,0.241,0.05,0.363c0,0.096-0.012,0.191-0.034,0.286
		c-0.021,0.098-0.055,0.189-0.095,0.271l-0.005,0.008c-0.043,0.085-0.097,0.166-0.158,0.239c-0.062,0.07-0.132,0.136-0.214,0.192
		h0.001l-0.004,0.003v0.002c-0.084,0.057-0.176,0.103-0.276,0.133c-0.095,0.031-0.2,0.048-0.308,0.049h-0.02
		c-0.099-0.003-0.194-0.018-0.289-0.047v-0.002c-0.087-0.026-0.173-0.064-0.258-0.115l-0.002,0.002l-0.008-0.007
		C161.985,92.665,161.917,92.623,161.844,92.578L161.844,92.578z M203.921,105.234c-0.043-0.136-0.065-0.289-0.065-0.455V90.854
		c0-0.167,0.023-0.32,0.065-0.456h0.002c0.048-0.155,0.127-0.285,0.23-0.388c0.104-0.104,0.23-0.183,0.379-0.233
		c0.136-0.044,0.284-0.068,0.447-0.068c0.167,0,0.32,0.023,0.455,0.067c0.154,0.05,0.284,0.128,0.389,0.234
		c0.106,0.104,0.184,0.233,0.233,0.386c0.045,0.136,0.069,0.29,0.069,0.458v13.925c0,0.167-0.024,0.32-0.068,0.456
		c-0.05,0.151-0.126,0.28-0.231,0.383l-0.008,0.007c-0.104,0.104-0.231,0.183-0.384,0.232c-0.135,0.044-0.288,0.065-0.455,0.065
		c-0.163,0-0.311-0.022-0.447-0.067c-0.149-0.05-0.275-0.128-0.379-0.234v0.002C204.049,105.52,203.971,105.391,203.921,105.234
		 M254.004,92.578c-0.106-0.064-0.168-0.104-0.211-0.135h-0.002l-0.01-0.007v-0.001c-0.102-0.063-0.21-0.117-0.319-0.168
		c-0.125-0.059-0.263-0.112-0.41-0.164l-0.002-0.001l-0.001-0.001c-0.149-0.05-0.306-0.097-0.467-0.136h-0.004
		c-0.16-0.039-0.328-0.075-0.499-0.104c-0.181-0.031-0.354-0.054-0.515-0.07h-0.003c-0.162-0.015-0.332-0.021-0.513-0.021v-0.002
		c-0.145,0.002-0.29,0.018-0.436,0.046c-0.142,0.029-0.28,0.071-0.415,0.124l-0.003,0.002c-0.136,0.057-0.265,0.125-0.383,0.203
		c-0.122,0.078-0.238,0.17-0.346,0.271c-0.109,0.102-0.204,0.212-0.287,0.328s-0.156,0.244-0.219,0.381
		c-0.06,0.133-0.107,0.273-0.137,0.42c-0.031,0.149-0.048,0.303-0.05,0.458c0.001,0.121,0.023,0.24,0.06,0.355
		c0.041,0.114,0.099,0.227,0.178,0.333l0.001,0.002c0.084,0.117,0.186,0.23,0.305,0.343c0.122,0.116,0.261,0.228,0.414,0.333
		l0.004,0.002c0.159,0.113,0.331,0.228,0.514,0.339c0.192,0.117,0.389,0.23,0.589,0.335l0.64,0.345l0.001-0.001l0.662,0.351v0.002
		c0.266,0.141,0.507,0.273,0.714,0.388c0.219,0.124,0.45,0.258,0.695,0.403v-0.001c0.232,0.136,0.462,0.285,0.683,0.445h0.002
		c0.211,0.149,0.418,0.312,0.616,0.484l0.005,0.002c0.2,0.176,0.383,0.365,0.546,0.568s0.306,0.417,0.428,0.644
		c0.128,0.236,0.222,0.489,0.286,0.76c0.062,0.259,0.096,0.539,0.1,0.84v0.007c-0.002,0.403-0.04,0.776-0.108,1.121h-0.002
		c-0.072,0.355-0.178,0.686-0.317,0.994c-0.142,0.308-0.311,0.591-0.508,0.849v0.001c-0.196,0.26-0.423,0.495-0.675,0.702h-0.001
		c-0.254,0.205-0.525,0.385-0.815,0.538c-0.289,0.152-0.601,0.282-0.934,0.383c-0.327,0.103-0.669,0.178-1.021,0.229
		c-0.358,0.052-0.724,0.076-1.099,0.076v-0.002c-0.348,0-0.687-0.021-1.015-0.067c-0.332-0.046-0.659-0.116-0.976-0.21v-0.001
		c-0.317-0.092-0.625-0.207-0.924-0.342c-0.301-0.139-0.593-0.3-0.873-0.48l-0.002-0.001c-0.118-0.078-0.22-0.16-0.304-0.246
		c-0.088-0.088-0.165-0.186-0.227-0.293h-0.002l-0.001-0.001l-0.001-0.001c-0.062-0.103-0.111-0.211-0.144-0.326l-0.003-0.003
		c-0.032-0.116-0.048-0.236-0.048-0.357c0-0.158,0.02-0.303,0.062-0.429c0.047-0.144,0.12-0.266,0.216-0.366l0.01-0.008
		c0.099-0.098,0.221-0.17,0.365-0.217h0.002c0.128-0.041,0.27-0.063,0.426-0.063c0.077,0,0.155,0.008,0.237,0.021h0.001
		c0.077,0.012,0.156,0.033,0.236,0.061l0.002,0.001c0.078,0.024,0.157,0.06,0.235,0.099c0.069,0.034,0.14,0.076,0.213,0.124
		c0.131,0.08,0.263,0.152,0.392,0.215c0.138,0.066,0.278,0.127,0.421,0.182c0.141,0.055,0.29,0.103,0.441,0.146
		c0.153,0.043,0.301,0.079,0.449,0.106c0.152,0.03,0.301,0.054,0.445,0.067c0.136,0.014,0.28,0.021,0.43,0.021
		c0.214,0,0.421-0.012,0.621-0.036c0.201-0.024,0.394-0.061,0.574-0.107c0.181-0.046,0.352-0.106,0.511-0.18
		c0.156-0.071,0.301-0.155,0.435-0.252c0.128-0.092,0.245-0.199,0.347-0.32c0.103-0.123,0.191-0.259,0.263-0.406v-0.003
		c0.076-0.15,0.132-0.316,0.17-0.497v-0.002c0.04-0.188,0.062-0.394,0.062-0.612v-0.007c0-0.113-0.019-0.229-0.051-0.339
		c-0.032-0.107-0.083-0.214-0.148-0.315c-0.075-0.116-0.161-0.228-0.262-0.332c-0.102-0.107-0.218-0.213-0.348-0.317
		c-0.136-0.105-0.286-0.212-0.448-0.319c-0.159-0.104-0.33-0.211-0.51-0.313h0.002c-0.366-0.208-0.755-0.418-1.16-0.628
		c-0.267-0.139-0.474-0.246-0.622-0.324c-0.141-0.075-0.356-0.193-0.622-0.337l-0.003-0.002c-0.209-0.117-0.415-0.238-0.616-0.361
		c-0.198-0.123-0.395-0.25-0.585-0.383c-0.197-0.137-0.384-0.279-0.556-0.424c-0.175-0.147-0.34-0.301-0.493-0.462
		c-0.156-0.165-0.298-0.339-0.424-0.523c-0.129-0.185-0.239-0.374-0.328-0.565v-0.003c-0.095-0.205-0.168-0.421-0.214-0.647
		c-0.047-0.219-0.072-0.451-0.075-0.694v-0.005c0.003-0.371,0.037-0.717,0.103-1.04c0.064-0.327,0.163-0.641,0.295-0.936
		l0.003-0.004c0.131-0.29,0.289-0.559,0.471-0.804c0.183-0.247,0.392-0.474,0.626-0.679c0.235-0.201,0.488-0.379,0.757-0.53v0.002
		c0.268-0.153,0.555-0.28,0.857-0.383v-0.001c0.605-0.208,1.253-0.311,1.952-0.311c0.292,0,0.595,0.02,0.909,0.063
		c0.306,0.041,0.617,0.104,0.931,0.186h0.001c0.314,0.085,0.63,0.189,0.943,0.315s0.627,0.272,0.935,0.439l0.015,0.008
		c0.124,0.075,0.233,0.158,0.326,0.249c0.101,0.097,0.183,0.203,0.247,0.317l0.004,0.005c0.062,0.112,0.109,0.227,0.139,0.343v0.002
		c0.033,0.12,0.05,0.241,0.05,0.363c0,0.096-0.012,0.191-0.034,0.286c-0.021,0.098-0.053,0.189-0.094,0.271l-0.004,0.008
		c-0.045,0.085-0.098,0.166-0.159,0.239c-0.062,0.07-0.132,0.136-0.213,0.192l-0.003,0.003l-0.002,0.002
		c-0.084,0.057-0.177,0.103-0.276,0.133c-0.095,0.031-0.199,0.048-0.31,0.049h-0.018c-0.099-0.003-0.195-0.018-0.289-0.047v-0.002
		c-0.086-0.026-0.172-0.064-0.258-0.115l-0.001,0.002l-0.009-0.007C254.142,92.665,254.073,92.623,254.004,92.578L254.004,92.578z
		 M298.938,105.167c-0.044-0.147-0.067-0.312-0.067-0.492V91.999h-2.691c-0.176,0-0.333-0.022-0.475-0.063
		c-0.156-0.045-0.293-0.121-0.403-0.224l-0.003-0.001c-0.111-0.102-0.196-0.229-0.25-0.379c-0.05-0.133-0.075-0.286-0.075-0.458
		h-0.001c0-0.17,0.024-0.326,0.074-0.463c0.054-0.155,0.138-0.285,0.252-0.389V90.02c0.11-0.102,0.245-0.177,0.404-0.225
		c0.144-0.044,0.303-0.064,0.477-0.064h7.691c0.359,0,0.645,0.097,0.851,0.296c0.108,0.104,0.189,0.232,0.243,0.384
		c0.048,0.139,0.071,0.293,0.071,0.463h-0.002c0,0.169-0.023,0.321-0.069,0.453v0.002c-0.054,0.149-0.137,0.276-0.249,0.379v0.003
		c-0.108,0.101-0.238,0.176-0.389,0.224v-0.002c-0.141,0.044-0.291,0.066-0.456,0.066h-2.712v12.676
		c0,0.383-0.094,0.683-0.277,0.897c-0.198,0.233-0.481,0.349-0.847,0.349v0.002c-0.172,0-0.33-0.026-0.473-0.079v0.001
		c-0.153-0.057-0.283-0.145-0.389-0.26l-0.002-0.003l-0.003-0.002C299.063,105.466,298.987,105.329,298.938,105.167
		 M344.432,104.976c-0.01-0.108-0.014-0.231-0.012-0.368V91.062h-0.002c0-0.189,0.023-0.363,0.071-0.519
		c0.054-0.172,0.134-0.319,0.241-0.437l0.003-0.004c0.114-0.12,0.253-0.211,0.414-0.271c0.15-0.054,0.315-0.081,0.498-0.081v0.002
		h6.336v-0.002c0.168,0,0.321,0.022,0.456,0.066c0.152,0.049,0.281,0.126,0.383,0.229l0.008,0.01
		c0.105,0.103,0.183,0.231,0.231,0.383c0.044,0.136,0.065,0.288,0.065,0.455s-0.022,0.315-0.067,0.448
		c-0.051,0.146-0.127,0.273-0.233,0.378v0.002c-0.102,0.102-0.232,0.18-0.387,0.229c-0.137,0.045-0.289,0.068-0.456,0.068h-5.296
		v4.381h4.296c0.171,0,0.326,0.024,0.462,0.07v0.003c0.152,0.052,0.28,0.133,0.384,0.242h0.001c0.104,0.106,0.182,0.238,0.23,0.391
		c0.044,0.139,0.068,0.292,0.068,0.459c0,0.16-0.024,0.306-0.07,0.438c-0.05,0.146-0.129,0.271-0.236,0.373
		c-0.102,0.102-0.231,0.178-0.387,0.227v0.001c-0.133,0.042-0.285,0.063-0.452,0.063h-4.296v4.986h5.463
		c0.184,0,0.35,0.021,0.496,0.063c0.168,0.048,0.31,0.121,0.425,0.223c0.12,0.103,0.209,0.231,0.269,0.385
		c0.055,0.143,0.08,0.3,0.08,0.476c0,0.171-0.025,0.325-0.081,0.465c-0.059,0.147-0.15,0.275-0.272,0.379v0.002
		c-0.114,0.097-0.255,0.169-0.42,0.215c-0.148,0.041-0.313,0.062-0.496,0.062h-6.503v-0.002c-0.139,0.002-0.263-0.005-0.369-0.019
		c-0.128-0.018-0.239-0.047-0.33-0.084l-0.003-0.002c-0.111-0.049-0.209-0.119-0.288-0.211l-0.001,0.001
		c-0.076-0.09-0.134-0.196-0.167-0.317c-0.025-0.091-0.046-0.193-0.056-0.311V104.976z M398.38,90.644
		c0.107,0.197,0.2,0.427,0.276,0.688h0.002l3.066,10.189l3.142-10.192c0.077-0.251,0.173-0.475,0.287-0.669
		c0.119-0.201,0.257-0.373,0.414-0.514l0.004-0.003c0.162-0.142,0.341-0.251,0.536-0.323c0.193-0.073,0.399-0.111,0.615-0.111
		c0.229,0,0.438,0.043,0.63,0.127c0.192,0.085,0.362,0.212,0.51,0.383h0.001c0.137,0.157,0.248,0.354,0.336,0.586v0.001
		c0.082,0.215,0.143,0.465,0.184,0.746l1.938,13.007l0.005,0.029v0.024c0.014,0.053,0.021,0.109,0.021,0.167l-0.002,0.005
		c-0.002,0.164-0.031,0.314-0.084,0.442c-0.058,0.142-0.143,0.262-0.254,0.367l0.002,0.001c-0.11,0.103-0.235,0.181-0.374,0.231
		c-0.129,0.048-0.273,0.072-0.429,0.074l-0.004,0.002c-0.165,0-0.315-0.025-0.451-0.073l-0.002-0.002
		c-0.149-0.053-0.276-0.133-0.383-0.239l-0.007-0.008c-0.098-0.102-0.178-0.227-0.239-0.376c-0.054-0.132-0.096-0.286-0.119-0.455
		v-0.003l-1.548-11.047l-3.565,11.064l-0.001,0.002l-0.001,0.002c-0.055,0.176-0.118,0.332-0.188,0.46
		c-0.075,0.141-0.164,0.26-0.264,0.357v0.001l-0.004,0.005l-0.001,0.003l-0.001-0.001c-0.104,0.106-0.218,0.188-0.339,0.241
		c-0.131,0.06-0.27,0.089-0.411,0.089c-0.145,0-0.286-0.029-0.419-0.09c-0.123-0.054-0.24-0.137-0.342-0.241v0.001
		c-0.099-0.099-0.187-0.223-0.264-0.368c-0.07-0.136-0.134-0.287-0.188-0.459v-0.002l-3.438-11.083l-1.675,11.05h-0.001
		c-0.023,0.169-0.061,0.32-0.111,0.452h-0.001c-0.06,0.147-0.137,0.274-0.234,0.381c-0.104,0.117-0.234,0.204-0.389,0.261v-0.001
		c-0.14,0.053-0.296,0.079-0.465,0.079c-0.15,0-0.29-0.021-0.416-0.063c-0.136-0.044-0.257-0.113-0.36-0.207
		c-0.11-0.099-0.193-0.222-0.247-0.365h-0.002c-0.048-0.13-0.074-0.277-0.077-0.441v-0.007l0.002-0.064v-0.011l0.001-0.047
		c0-0.035,0.005-0.074,0.01-0.114v-0.004c0.004-0.031,0.011-0.062,0.019-0.092l2.059-12.94c0.047-0.287,0.112-0.54,0.196-0.76
		c0.092-0.235,0.206-0.434,0.341-0.594l0.004-0.003c0.146-0.174,0.32-0.305,0.517-0.393c0.195-0.086,0.409-0.129,0.643-0.129
		c0.216,0,0.419,0.037,0.608,0.112h0.001c0.188,0.075,0.363,0.188,0.522,0.335C398.128,90.255,398.263,90.434,398.38,90.644
		 M459.268,100.424l-2.52-7.076l-2.591,7.076H459.268z M461.518,105.733c-0.19-0.125-0.329-0.307-0.421-0.544l-0.989-2.436h-6.66
		l-0.765,2.13c-0.058,0.155-0.124,0.296-0.201,0.418l0.001,0.001c-0.08,0.128-0.175,0.237-0.282,0.327l-0.003,0.002
		c-0.111,0.098-0.238,0.172-0.372,0.22c-0.135,0.048-0.278,0.071-0.431,0.071l-0.007-0.002c-0.113-0.002-0.216-0.016-0.304-0.04
		c-0.104-0.027-0.198-0.069-0.283-0.128l-0.008-0.004c-0.077-0.055-0.146-0.12-0.203-0.191c-0.059-0.073-0.105-0.155-0.142-0.242
		h0.001c-0.031-0.076-0.055-0.157-0.071-0.242c-0.016-0.086-0.023-0.171-0.023-0.252c0-0.043,0.004-0.096,0.012-0.154
		c0.007-0.057,0.016-0.106,0.027-0.148c0.008-0.04,0.018-0.079,0.03-0.118v-0.002c0.008-0.027,0.02-0.068,0.033-0.109l0.004-0.009
		l4.711-13.341l0.001-0.004c0.066-0.184,0.149-0.349,0.248-0.492c0.104-0.152,0.222-0.281,0.354-0.382
		c0.137-0.105,0.288-0.183,0.451-0.234v0.001c0.161-0.051,0.329-0.076,0.505-0.076c0.175,0,0.344,0.025,0.504,0.076l0.001-0.001
		c0.162,0.052,0.313,0.129,0.451,0.234c0.132,0.101,0.25,0.229,0.354,0.382c0.098,0.144,0.183,0.309,0.248,0.492v0.001l4.877,13.338
		c0.021,0.049,0.037,0.096,0.049,0.139c0.012,0.041,0.023,0.092,0.035,0.151l0.003,0.015c0.007,0.053,0.012,0.099,0.016,0.132
		h-0.002c0.004,0.057,0.008,0.101,0.008,0.132c0,0.146-0.022,0.282-0.067,0.406c-0.048,0.136-0.118,0.253-0.213,0.355l-0.005,0.003
		c-0.099,0.105-0.221,0.185-0.361,0.239c-0.128,0.047-0.272,0.072-0.43,0.074l-0.006,0.002c-0.262,0-0.485-0.063-0.674-0.187
		L461.518,105.733z M510.653,92.578c-0.104-0.066-0.17-0.106-0.213-0.135l-0.001-0.002c-0.105-0.063-0.214-0.122-0.327-0.174
		c-0.126-0.059-0.264-0.113-0.412-0.165c-0.147-0.05-0.307-0.097-0.47-0.137h-0.002c-0.16-0.039-0.328-0.075-0.498-0.104
		c-0.182-0.031-0.354-0.054-0.517-0.07h-0.002c-0.161-0.015-0.331-0.021-0.514-0.021v-0.002c-0.144,0.002-0.29,0.018-0.437,0.046
		c-0.142,0.029-0.28,0.071-0.414,0.124h-0.001l-0.002,0.002c-0.136,0.057-0.266,0.125-0.383,0.203
		c-0.122,0.078-0.238,0.17-0.347,0.271c-0.107,0.102-0.203,0.212-0.286,0.328c-0.084,0.116-0.155,0.244-0.221,0.381h0.001
		l-0.002,0.002v0.001c-0.059,0.133-0.104,0.271-0.136,0.417c-0.03,0.148-0.048,0.302-0.048,0.456v0.005
		c0,0.12,0.021,0.239,0.06,0.353c0.039,0.114,0.099,0.227,0.177,0.333l0.001,0.002c0.084,0.117,0.187,0.23,0.305,0.343
		c0.123,0.116,0.263,0.228,0.415,0.333l0.005,0.002c0.157,0.113,0.329,0.228,0.514,0.339c0.191,0.117,0.389,0.23,0.589,0.335
		l0.641,0.345v-0.001l0.66,0.351v0.002c0.269,0.141,0.509,0.272,0.715,0.388c0.22,0.123,0.451,0.258,0.694,0.402
		c0.238,0.139,0.466,0.287,0.684,0.445h0.001c0.214,0.149,0.42,0.312,0.619,0.484l0.003,0.002c0.202,0.18,0.385,0.369,0.546,0.568
		c0.164,0.203,0.308,0.417,0.43,0.644c0.126,0.235,0.221,0.488,0.285,0.76c0.062,0.26,0.096,0.539,0.099,0.84v0.007
		c-0.002,0.403-0.039,0.776-0.107,1.121c-0.07,0.353-0.177,0.684-0.318,0.994c-0.142,0.308-0.311,0.591-0.508,0.849
		c-0.199,0.262-0.425,0.497-0.675,0.703c-0.253,0.205-0.526,0.385-0.816,0.538c-0.289,0.152-0.601,0.282-0.933,0.383
		c-0.328,0.103-0.669,0.178-1.024,0.229s-0.722,0.076-1.096,0.076c-0.342,0-0.68-0.022-1.016-0.069
		c-0.333-0.046-0.658-0.116-0.977-0.21v-0.001c-0.317-0.092-0.625-0.207-0.922-0.342c-0.302-0.139-0.594-0.3-0.875-0.48
		l-0.002-0.001c-0.118-0.078-0.219-0.16-0.305-0.246c-0.088-0.088-0.166-0.185-0.229-0.293c-0.063-0.102-0.113-0.213-0.146-0.328
		l-0.002-0.003c-0.032-0.116-0.05-0.236-0.05-0.357c0-0.158,0.022-0.303,0.063-0.429c0.047-0.144,0.12-0.266,0.217-0.366
		l0.008-0.008c0.102-0.098,0.223-0.17,0.367-0.217h0.002c0.127-0.041,0.27-0.063,0.425-0.063c0.076,0,0.156,0.008,0.236,0.021h0.003
		c0.077,0.012,0.155,0.033,0.236,0.061l0.002,0.001c0.076,0.024,0.155,0.06,0.233,0.099c0.069,0.034,0.14,0.076,0.213,0.125
		c0.128,0.076,0.26,0.149,0.392,0.214c0.134,0.064,0.275,0.125,0.423,0.182c0.141,0.055,0.288,0.103,0.44,0.146
		c0.151,0.043,0.3,0.079,0.448,0.106c0.153,0.03,0.302,0.054,0.444,0.067c0.138,0.014,0.281,0.021,0.43,0.021
		c0.215,0,0.423-0.012,0.622-0.036c0.203-0.024,0.396-0.061,0.574-0.107c0.181-0.046,0.351-0.106,0.511-0.18
		c0.156-0.071,0.303-0.155,0.436-0.252c0.127-0.092,0.244-0.199,0.347-0.32c0.103-0.123,0.191-0.259,0.263-0.406v-0.003
		c0.075-0.15,0.131-0.316,0.17-0.497v-0.002c0.041-0.189,0.063-0.395,0.063-0.614c0-0.117-0.02-0.232-0.052-0.344
		c-0.032-0.107-0.082-0.213-0.149-0.315c-0.075-0.116-0.162-0.228-0.26-0.332c-0.103-0.107-0.218-0.213-0.349-0.317
		c-0.138-0.105-0.287-0.212-0.447-0.319c-0.16-0.104-0.33-0.211-0.512-0.313c-0.363-0.209-0.752-0.418-1.157-0.628
		c-0.27-0.139-0.476-0.246-0.622-0.324c-0.142-0.075-0.358-0.193-0.622-0.337l-0.003-0.002c-0.199-0.11-0.404-0.231-0.615-0.361
		c-0.2-0.123-0.395-0.25-0.586-0.383c-0.198-0.137-0.385-0.279-0.555-0.424c-0.176-0.147-0.34-0.301-0.493-0.462
		c-0.157-0.165-0.299-0.339-0.427-0.523c-0.127-0.185-0.236-0.374-0.327-0.565v-0.003c-0.095-0.205-0.166-0.421-0.214-0.647
		c-0.047-0.219-0.071-0.451-0.073-0.694v-0.005c0.002-0.371,0.037-0.717,0.101-1.04c0.065-0.327,0.165-0.641,0.297-0.936
		l0.001-0.004c0.132-0.29,0.291-0.559,0.473-0.804c0.185-0.25,0.395-0.477,0.625-0.679h0.001c0.234-0.201,0.487-0.379,0.756-0.53
		l0.001,0.002c0.269-0.153,0.555-0.28,0.855-0.383v-0.001c0.606-0.208,1.255-0.311,1.953-0.311c0.292,0,0.597,0.02,0.909,0.063
		c0.307,0.041,0.617,0.104,0.932,0.186h0.002c0.313,0.085,0.63,0.189,0.942,0.315s0.625,0.272,0.936,0.439l0.014,0.008
		c0.123,0.075,0.233,0.158,0.325,0.249c0.102,0.098,0.184,0.203,0.248,0.317l0.004,0.005c0.061,0.112,0.108,0.227,0.141,0.343v0.002
		c0.031,0.12,0.048,0.241,0.048,0.363c0,0.096-0.011,0.191-0.034,0.286c-0.021,0.098-0.053,0.189-0.094,0.271l-0.005,0.007
		c-0.045,0.088-0.096,0.169-0.158,0.24c-0.06,0.069-0.132,0.133-0.215,0.191l0.001,0.001c-0.084,0.061-0.179,0.105-0.279,0.138
		c-0.097,0.031-0.199,0.048-0.31,0.049h-0.019c-0.1-0.001-0.194-0.018-0.288-0.047c-0.091-0.028-0.182-0.069-0.271-0.122
		l0.001-0.001C510.784,92.66,510.717,92.62,510.653,92.578L510.653,92.578z"/>
</g>
</svg>
