<?xml version="1.0" encoding="utf-8"?>
<!-- Generator: Adobe Illustrator 14.0.0, SVG Export Plug-In . SVG Version: 6.00 Build 43363)  -->
<!DOCTYPE svg PUBLIC "-//W3C//DTD SVG 1.0//EN" "http://www.w3.org/TR/2001/REC-SVG-20010904/DTD/svg10.dtd">
<svg version="1.0" id="Camada_1" xmlns="http://www.w3.org/2000/svg" xmlns:xlink="http://www.w3.org/1999/xlink" x="0px" y="0px"
	 width="59.845px" height="59.569px" viewBox="0 0 59.845 59.569" enable-background="new 0 0 59.845 59.569" xml:space="preserve">
<path fill="#FFFFFF" d="M43.206,36.567l-2.612,2.612l-1.126-1.125c3.666-4.004,5.907-9.334,5.907-15.179
	c0-12.407-10.094-22.5-22.5-22.5c-12.406,0-22.5,10.093-22.5,22.5s10.094,22.5,22.5,22.5c5.844,0,11.174-2.241,15.179-5.907
	l1.126,1.125l-2.338,2.338l16.264,16.263h0.414c3.281,0,5.95-2.669,5.95-5.949v-0.414L43.206,36.567z M22.875,43.375
	c-11.304,0-20.5-9.196-20.5-20.5c0-11.304,9.196-20.5,20.5-20.5c11.304,0,20.5,9.196,20.5,20.5
	C43.375,34.179,34.179,43.375,22.875,43.375z M53.914,57.174L39.67,42.931l3.536-3.536L57.45,53.639
	C57.265,55.502,55.777,56.989,53.914,57.174z"/>
</svg>
