<?xml version="1.0" encoding="utf-8"?>
<!-- Generator: Adobe Illustrator 14.0.0, SVG Export Plug-In . SVG Version: 6.00 Build 43363)  -->
<!DOCTYPE svg PUBLIC "-//W3C//DTD SVG 1.0//EN" "http://www.w3.org/TR/2001/REC-SVG-20010904/DTD/svg10.dtd">
<svg version="1.0" id="Camada_1" xmlns="http://www.w3.org/2000/svg" xmlns:xlink="http://www.w3.org/1999/xlink" x="0px" y="0px"
	 width="36.468px" height="32.462px" viewBox="0 0 36.468 32.462" enable-background="new 0 0 36.468 32.462" xml:space="preserve">
<path fill="#FFFFFF" d="M36.447,7.243c0-1.044-0.849-1.893-1.893-1.893H24.256V2.642c0-1.457-1.185-2.643-2.641-2.643h-6.764
	c-1.457,0-2.642,1.186-2.642,2.643V5.35H1.914c-1.044,0-1.894,0.849-1.894,1.892L0,16.58c0,0.276,0.157,0.528,0.406,0.649
	c0.429,0.208,0.87,0.4,1.314,0.591v12.748c0,1.045,0.85,1.895,1.894,1.895h29.238c1.045,0,1.895-0.85,1.895-1.895V17.625
	c0.453-0.208,0.902-0.421,1.337-0.65c0.236-0.125,0.385-0.371,0.384-0.638L36.447,7.243z M13.649,2.642
	c0-0.663,0.539-1.202,1.202-1.202h6.764c0.651,0,1.201,0.55,1.201,1.202V5.35h-9.167V2.642z M33.308,30.568
	c0,0.242-0.213,0.455-0.455,0.455H3.615c-0.246,0-0.454-0.209-0.454-0.455V18.39c3.47,1.286,7.353,2.056,11.593,2.285v1.159
	c0,0.756,0.615,1.371,1.37,1.371h4.219c0.755,0,1.369-0.615,1.369-1.371v-1.177c4.299-0.256,8.183-1.068,11.595-2.422V30.568z
	 M16.125,19.01l4.149-0.069v2.826l-4.079,0.067L16.125,19.01z M21.713,19.215v-0.274c0-0.756-0.614-1.37-1.369-1.37h-4.219
	c-0.755,0-1.37,0.614-1.37,1.37v0.292c-4.998-0.279-9.474-1.319-13.313-3.106L1.46,7.243c0-0.25,0.204-0.453,0.454-0.453h32.641
	c0.245,0,0.453,0.207,0.453,0.454l0.02,8.655C31.283,17.793,26.806,18.903,21.713,19.215z"/>
</svg>
