<?xml version="1.0" encoding="utf-8"?>
<!-- Generator: Adobe Illustrator 14.0.0, SVG Export Plug-In . SVG Version: 6.00 Build 43363)  -->
<!DOCTYPE svg PUBLIC "-//W3C//DTD SVG 1.0//EN" "http://www.w3.org/TR/2001/REC-SVG-20010904/DTD/svg10.dtd">
<svg version="1.0" id="Camada_1" xmlns="http://www.w3.org/2000/svg" xmlns:xlink="http://www.w3.org/1999/xlink" x="0px" y="0px"
	 width="129.808px" height="102.397px" viewBox="0 0 129.808 102.397" enable-background="new 0 0 129.808 102.397"
	 xml:space="preserve">
<g>
	<path fill="#FFFFFF" d="M86.741,73.57c-3.021-1.509-8.036-4.016-9.254-5.164c5.097-6.259,8.05-13.332,8.05-19.519
		c0-4.2,0-9.426-2.347-14.086c-2.121-4.199-6.856-9.199-17.384-9.199c-10.526,0-15.26,5-17.377,9.195
		c-2.356,4.664-2.356,9.89-2.356,14.09c0,6.191,2.953,13.258,8.05,19.519c-1.214,1.152-6.231,3.659-9.245,5.164
		c-5.977,2.991-9.775,4.969-12.039,7.234c-5.025,5.027-5.404,13.457-5.43,15.093c-0.027,1.716,0.637,3.373,1.839,4.591
		c1.2,1.223,2.845,1.909,4.558,1.909h64.001c1.715,0,3.352-0.687,4.559-1.909c1.203-1.218,1.871-2.875,1.839-4.591
		c-0.027-1.636-0.406-10.065-5.425-15.093C96.509,78.539,92.712,76.562,86.741,73.57 M33.806,96.008
		c0.043-2.688,0.845-7.961,3.556-10.676c1.569-1.57,5.293-3.492,10.375-6.035c6.015-3.004,9.164-4.703,10.784-6.242l4.318-4.082
		l-3.75-4.605c-4.203-5.16-6.615-10.806-6.615-15.48c0-3.707,0-7.907,1.665-11.203C56.073,33.859,59.889,32,65.806,32
		c5.918,0,9.739,1.859,11.668,5.684c1.668,3.3,1.668,7.496,1.668,11.203c0,4.674-2.41,10.316-6.616,15.484l-3.755,4.608l4.326,4.082
		c1.616,1.532,4.765,3.228,10.779,6.235c5.082,2.547,8.81,4.469,10.375,6.035C96.97,88.055,97.768,93.32,97.807,96L33.806,96.008z
		 M124.376,55.207c-2.265-2.267-6.058-4.246-12.039-7.234c-3.015-1.512-8.03-4.016-9.246-5.164
		c5.095-6.262,8.052-13.332,8.052-19.52c0-4.199,0-9.43-2.356-14.09C106.669,5.004,101.936,0,91.409,0
		C80.88,0,76.146,5.004,74.03,9.199c-2.196,4.34-2.345,9.164-2.352,13.199h6.401c0.018-3.476,0.125-7.273,1.661-10.312
		c1.929-3.828,5.75-5.688,11.668-5.688s9.734,1.86,11.668,5.684c1.664,3.301,1.664,7.5,1.664,11.207
		c0,4.672-2.411,10.316-6.614,15.481l-3.754,4.609l4.325,4.082c1.617,1.531,4.761,3.226,10.777,6.234
		c5.086,2.547,8.809,4.469,10.375,6.038c2.723,2.72,3.516,7.985,3.559,10.669H94.608l9.597,6.398h19.204
		c1.714,0,3.355-0.692,4.562-1.91c1.199-1.219,1.863-2.875,1.837-4.59C129.784,68.664,129.401,60.229,124.376,55.207 M5.431,55.207
		C0.408,60.229,0.025,68.664,0,70.301c-0.027,1.715,0.637,3.371,1.836,4.59c1.207,1.218,2.848,1.91,4.563,1.91h19.203l9.598-6.398
		H6.4c0.043-2.684,0.836-7.949,3.558-10.669c1.567-1.569,5.289-3.491,10.375-6.038c6.016-3.008,9.161-4.703,10.778-6.234
		l4.324-4.082l-3.754-4.609c-4.203-5.165-6.613-10.809-6.613-15.481c0-3.707,0-7.906,1.664-11.207
		c1.933-3.824,5.75-5.684,11.668-5.684s9.738,1.86,11.668,5.688c1.535,3.039,1.644,6.836,1.66,10.312h6.402
		c-0.007-4.035-0.156-8.859-2.351-13.199C53.662,5.004,48.927,0,38.4,0C27.872,0,23.138,5.004,21.021,9.199
		c-2.356,4.66-2.356,9.891-2.356,14.09c0,6.188,2.957,13.258,8.051,19.52c-1.215,1.148-6.23,3.652-9.246,5.164
		C11.49,50.961,7.697,52.94,5.431,55.207"/>
</g>
</svg>
