<?xml version="1.0" encoding="utf-8"?>
<!-- Generator: Adobe Illustrator 14.0.0, SVG Export Plug-In . SVG Version: 6.00 Build 43363)  -->
<!DOCTYPE svg PUBLIC "-//W3C//DTD SVG 1.0//EN" "http://www.w3.org/TR/2001/REC-SVG-20010904/DTD/svg10.dtd">
<svg version="1.0" id="Camada_1" xmlns="http://www.w3.org/2000/svg" xmlns:xlink="http://www.w3.org/1999/xlink" x="0px" y="0px"
	 width="30.152px" height="30.936px" viewBox="0 0 30.152 30.936" enable-background="new 0 0 30.152 30.936" xml:space="preserve">
<g>
	<g>
		<path fill="#FFFFFF" d="M28.246,30.935H1.908C0.856,30.935,0,30.196,0,29.289V1.645C0,0.738,0.856,0,1.908,0h26.337
			c1.051,0,1.906,0.738,1.906,1.646v27.644C30.152,30.196,29.296,30.935,28.246,30.935L28.246,30.935z M15.798,29.495h12.447
			c0.293,0,0.457-0.159,0.467-0.208V16.383H15.798V29.495L15.798,29.495z M1.441,16.383v12.906c0.008,0.053,0.182,0.206,0.467,0.206
			h12.45V16.383H1.441L1.441,16.383z M15.798,14.943h12.914V1.645c-0.008-0.047-0.17-0.205-0.467-0.205H15.798
			c0,0.002,0,0.005,0,0.007V14.943L15.798,14.943z M1.441,14.943h12.917V1.448c0-0.002,0-0.005,0-0.007H1.908
			c-0.312,0-0.467,0.166-0.467,0.205V14.943L1.441,14.943z M10.193,26.109c-0.184,0-0.369-0.07-0.509-0.211l-1.802-1.802
			L6.08,25.898c-0.281,0.281-0.737,0.281-1.019,0c-0.282-0.281-0.281-0.736,0-1.019l1.802-1.802l-1.802-1.803
			c-0.281-0.281-0.281-0.736,0-1.019c0.281-0.281,0.737-0.28,1.019,0l1.802,1.803l1.802-1.803c0.281-0.28,0.737-0.28,1.019,0
			c0.282,0.281,0.281,0.736,0,1.019L8.9,23.079l1.802,1.802c0.281,0.281,0.281,0.736,0,1.019
			C10.562,26.039,10.377,26.109,10.193,26.109L10.193,26.109z M25.516,25.556H18.98c-0.396,0-0.721-0.322-0.721-0.721
			c0-0.397,0.322-0.72,0.721-0.72h6.536c0.397,0,0.72,0.322,0.72,0.72C26.236,25.234,25.914,25.556,25.516,25.556L25.516,25.556z
			 M25.516,22.039H18.98c-0.396,0-0.721-0.322-0.721-0.72c0-0.398,0.322-0.72,0.721-0.72h6.536c0.397,0,0.72,0.321,0.72,0.72
			C26.236,21.717,25.914,22.039,25.516,22.039L25.516,22.039z M7.881,12.626c-0.397,0-0.72-0.323-0.72-0.72v-2.55H4.613
			c-0.397,0-0.72-0.323-0.72-0.721c0-0.396,0.323-0.72,0.72-0.72h2.548V5.367c0-0.397,0.323-0.72,0.72-0.72s0.72,0.322,0.72,0.72
			v2.548h2.548c0.397,0,0.72,0.323,0.72,0.72c0,0.397-0.323,0.721-0.72,0.721H8.602v2.55C8.602,12.302,8.279,12.626,7.881,12.626
			L7.881,12.626z M19.675,11.683c-0.184,0-0.367-0.07-0.508-0.211c-0.281-0.281-0.281-0.737,0-1.02l4.621-4.622
			c0.281-0.281,0.736-0.281,1.019,0s0.28,0.737,0,1.02l-4.622,4.622C20.044,11.613,19.86,11.683,19.675,11.683L19.675,11.683z"/>
	</g>
	<g>
		<path fill="#FFFFFF" d="M20.757,5.071c-0.563-0.57-1.553-0.577-2.133,0c-0.582,0.589-0.58,1.542,0.002,2.124
			c0.285,0.285,0.664,0.442,1.065,0.442c0.404,0,0.783-0.158,1.06-0.438c0.285-0.282,0.444-0.659,0.445-1.061
			C21.199,5.734,21.042,5.354,20.757,5.071z"/>
	</g>
	<g>
		<path fill="#FFFFFF" d="M25.642,9.954c-0.572-0.572-1.566-0.565-2.127,0c-0.284,0.284-0.441,0.662-0.441,1.064
			c0,0.401,0.157,0.779,0.44,1.063c0.282,0.284,0.661,0.44,1.063,0.44c0.399,0,0.777-0.155,1.063-0.439
			c0.284-0.284,0.442-0.663,0.442-1.064C26.083,10.615,25.925,10.237,25.642,9.954z"/>
	</g>
</g>
</svg>
