<?xml version="1.0" encoding="utf-8"?>
<!-- Generator: Adobe Illustrator 14.0.0, SVG Export Plug-In . SVG Version: 6.00 Build 43363)  -->
<!DOCTYPE svg PUBLIC "-//W3C//DTD SVG 1.0//EN" "http://www.w3.org/TR/2001/REC-SVG-20010904/DTD/svg10.dtd">
<svg version="1.0" id="Camada_1" xmlns="http://www.w3.org/2000/svg" xmlns:xlink="http://www.w3.org/1999/xlink" x="0px" y="0px"
	 width="12.801px" height="10.398px" viewBox="0 0 12.801 10.398" enable-background="new 0 0 12.801 10.398" xml:space="preserve">
<g>
	<g>
		<path fill="#FFFFFF" d="M12.801,1.23c-0.469,0.208-0.977,0.353-1.508,0.415c0.543-0.325,0.957-0.84,1.156-1.454
			c-0.508,0.302-1.07,0.521-1.672,0.638C10.301,0.32,9.617,0,8.863,0C7.414,0,6.238,1.176,6.238,2.625
			c0,0.207,0.024,0.406,0.067,0.598C4.121,3.113,2.188,2.07,0.891,0.48C0.664,0.867,0.535,1.32,0.535,1.801
			c0,0.91,0.465,1.715,1.168,2.183c-0.43-0.011-0.832-0.132-1.187-0.327v0.031c0,1.273,0.905,2.334,2.104,2.578
			c-0.219,0.06-0.453,0.089-0.69,0.089c-0.168,0-0.332-0.015-0.496-0.046C1.77,7.352,2.738,8.11,3.887,8.133
			C2.988,8.836,1.855,9.254,0.625,9.254C0.414,9.254,0.207,9.243,0,9.219c1.164,0.746,2.543,1.179,4.027,1.179
			c4.829,0,7.469-4,7.469-7.467l-0.008-0.34C12.004,2.219,12.449,1.758,12.801,1.23"/>
	</g>
</g>
</svg>
