<?xml version="1.0" encoding="utf-8"?>
<!-- Generator: Adobe Illustrator 14.0.0, SVG Export Plug-In . SVG Version: 6.00 Build 43363)  -->
<!DOCTYPE svg PUBLIC "-//W3C//DTD SVG 1.0//EN" "http://www.w3.org/TR/2001/REC-SVG-20010904/DTD/svg10.dtd">
<svg version="1.0" id="Camada_1" xmlns="http://www.w3.org/2000/svg" xmlns:xlink="http://www.w3.org/1999/xlink" x="0px" y="0px"
	 width="77.343px" height="77.343px" viewBox="0 0 77.343 77.343" enable-background="new 0 0 77.343 77.343" xml:space="preserve">
<g>
	<path fill="#FFFFFF" d="M38.672,0C17.348,0,0,17.347,0,38.672c0,21.323,17.348,38.671,38.672,38.671
		c21.324,0,38.672-17.348,38.672-38.671C77.344,17.347,59.996,0,38.672,0 M4.438,38.672c0-4.966,1.066-9.677,2.964-13.93
		l16.332,44.739C12.312,63.934,4.438,52.223,4.438,38.672 M38.672,72.908c-3.36,0-6.602-0.497-9.672-1.396l10.27-29.844
		l10.526,28.828c0.066,0.168,0.152,0.325,0.242,0.469C46.481,72.218,42.66,72.908,38.672,72.908 M43.391,22.62
		c2.058-0.109,3.914-0.328,3.914-0.328c1.848-0.214,1.633-2.925-0.216-2.816c0,0-5.547,0.434-9.125,0.434
		c-3.363,0-9.02-0.434-9.02-0.434c-1.843-0.109-2.054,2.711-0.215,2.816c0,0,1.747,0.219,3.59,0.328l5.332,14.615l-7.488,22.468
		l-12.465-37.08c2.063-0.109,3.918-0.327,3.918-0.327c1.844-0.219,1.625-2.93-0.219-2.821c0,0-5.543,0.434-9.125,0.434
		c-0.644,0-1.398-0.016-2.203-0.04c6.118-9.296,16.641-15.433,28.602-15.433c8.914,0,17.027,3.41,23.117,8.989
		c-0.147-0.009-0.293-0.027-0.444-0.027c-3.363,0-5.746,2.929-5.746,6.073c0,2.82,1.625,5.211,3.358,8.027
		c1.306,2.286,2.824,5.211,2.824,9.447c0,2.928-1.125,6.328-2.604,11.065l-3.414,11.41L43.391,22.62z M55.882,68.261l10.453-30.229
		c1.957-4.888,2.606-8.79,2.606-12.267c0-1.257-0.082-2.43-0.231-3.52c2.677,4.879,4.195,10.474,4.195,16.427
		C72.906,51.3,66.059,62.329,55.882,68.261"/>
</g>
</svg>
