<?xml version="1.0" encoding="utf-8"?>
<!-- Generator: Adobe Illustrator 14.0.0, SVG Export Plug-In . SVG Version: 6.00 Build 43363)  -->
<!DOCTYPE svg PUBLIC "-//W3C//DTD SVG 1.0//EN" "http://www.w3.org/TR/2001/REC-SVG-20010904/DTD/svg10.dtd">
<svg version="1.0" id="Camada_1" xmlns="http://www.w3.org/2000/svg" xmlns:xlink="http://www.w3.org/1999/xlink" x="0px" y="0px"
	 width="267.7px" height="191.528px" viewBox="0 0 267.7 191.528" enable-background="new 0 0 267.7 191.528" xml:space="preserve">
<g>
	<path fill="#FFFFFF" d="M140.263,191.528C140.259,191.528,140.263,191.528,140.263,191.528c-30.441,0-63.582-0.961-98.5-2.844
		c-20.625-1.129-36.625-17.031-38.907-38.676c-3.808-36.16-3.808-72.665,0-108.5C5.13,20.04,21.11,4.137,41.716,2.844
		c60.219-3.793,122.179-3.793,184.25,0c20.852,1.262,36.468,16.789,38.883,38.641c3.797,34.597,3.805,71.097,0.004,108.508
		c-2.195,21.628-17.801,37.176-38.828,38.684C199.56,190.567,170.708,191.528,140.263,191.528 M133.142,10.278
		c-30.344,0-60.891,0.957-90.786,2.832c-15.75,0.988-27.511,12.84-29.277,29.48c-3.73,35.117-3.73,70.891,0,106.34
		c1.766,16.776,13.512,28.625,29.234,29.488c34.731,1.87,67.688,2.827,97.942,2.827c30.199,0,58.809-0.952,85.027-2.823
		c15.867-1.141,27.656-12.98,29.328-29.469c3.734-36.691,3.734-72.465,0.004-106.344c-1.832-16.692-13.602-28.547-29.273-29.5
		C194.516,11.228,163.493,10.278,133.142,10.278 M107.661,59.34v70.567l67.766-35.043L107.661,59.34z"/>
</g>
</svg>
